<svg width="100" height="82" viewBox="0 0 100 82" fill="none" xmlns="http://www.w3.org/2000/svg">
<circle cx="50" cy="41" r="41" fill="url(#paint0_linear_277_5)"/>
<path d="M21.6172 49.3945C21.6172 49.4883 21.5898 49.5664 21.5352 49.6289C21.4805 49.6992 21.4141 49.7539 21.3359 49.793C21.2578 49.8398 21.1758 49.8789 21.0898 49.9102C21.0039 49.9492 20.9297 49.9883 20.8672 50.0273C20.6875 49.9883 20.5 49.9531 20.3047 49.9219C20.1094 49.8984 19.9336 49.8477 19.7773 49.7695C19.457 49.418 19.2305 49.0117 19.0977 48.5508C18.9727 48.0977 18.8906 47.6445 18.8516 47.1914C18.8359 47.0586 18.8281 46.9297 18.8281 46.8047C18.8281 46.6719 18.8203 46.5391 18.8047 46.4062C18.7891 46.2891 18.7188 46.2188 18.5938 46.1953C18.6875 46.1797 18.7539 46.1328 18.793 46.0547C18.832 45.9688 18.8555 45.875 18.8633 45.7734C18.8711 45.6641 18.8711 45.5586 18.8633 45.457C18.8633 45.3477 18.8711 45.2578 18.8867 45.1875C18.8242 45.2109 18.7695 45.2656 18.7227 45.3516C18.6758 45.4297 18.6328 45.5195 18.5938 45.6211C18.5547 45.7227 18.5156 45.8242 18.4766 45.9258C18.4453 46.0195 18.4141 46.0938 18.3828 46.1484C18.0547 46.7109 17.6719 47.2227 17.2344 47.6836C16.8047 48.1445 16.3594 48.6016 15.8984 49.0547C15.7656 49.1016 15.6406 49.1602 15.5234 49.2305C15.4062 49.3086 15.2969 49.3906 15.1953 49.4766C14.8984 49.5625 14.6172 49.6055 14.3516 49.6055C14.1094 49.6055 13.8711 49.5703 13.6367 49.5C13.4023 49.4375 13.1914 49.3281 13.0039 49.1719L12.5703 48.1875C12.5469 48.125 12.5195 48.0625 12.4883 48C12.457 47.9297 12.4336 47.8633 12.418 47.8008C12.4023 47.7305 12.3945 47.6562 12.3945 47.5781C12.4023 47.4922 12.4062 47.418 12.4062 47.3555C12.4062 47.082 12.4141 46.8086 12.4297 46.5352C12.4531 46.2539 12.4844 45.9766 12.5234 45.7031C12.5391 45.5938 12.5625 45.4805 12.5938 45.3633C12.625 45.2461 12.6484 45.1328 12.6641 45.0234V44.8945C12.6641 44.8555 12.6602 44.8086 12.6523 44.7539C12.6445 44.6914 12.6211 44.6523 12.582 44.6367C12.7695 44.1836 12.8633 43.7109 12.8633 43.2188C12.8633 43.1406 12.8594 43.0664 12.8516 42.9961C12.8516 42.918 12.8477 42.8398 12.8398 42.7617C12.8945 42.707 12.9297 42.6445 12.9453 42.5742C12.9609 42.4961 12.9688 42.418 12.9688 42.3398C12.9688 42.2539 12.9688 42.1719 12.9688 42.0938C12.9766 42.0156 13 41.9414 13.0391 41.8711C13.0312 41.7852 13.0234 41.7031 13.0156 41.625C13.0156 41.5391 13.0156 41.4531 13.0156 41.3672C13.0156 40.8438 13.0547 40.3281 13.1328 39.8203C13.2188 39.3047 13.2617 38.7852 13.2617 38.2617V37.7695C13.2617 37.6602 13.2617 37.5469 13.2617 37.4297C13.2695 37.3125 13.2852 37.1992 13.3086 37.0898C13.3398 36.9805 13.3828 36.8789 13.4375 36.7852C13.4922 36.6836 13.5703 36.5977 13.6719 36.5273C13.6875 36.5273 13.6992 36.5273 13.707 36.5273C13.7227 36.5195 13.7383 36.5156 13.7539 36.5156C13.8242 36.5156 13.8789 36.5352 13.918 36.5742C13.957 36.6055 14.0156 36.6172 14.0938 36.6094C14.2344 36.8125 14.3438 37.0273 14.4219 37.2539C14.5078 37.4805 14.5508 37.7188 14.5508 37.9688C14.5508 38.1562 14.5234 38.3398 14.4688 38.5195C14.4141 38.6992 14.3867 38.8867 14.3867 39.082C14.3867 39.1602 14.3906 39.2383 14.3984 39.3164C14.4062 39.3945 14.4102 39.4727 14.4102 39.5508C14.4102 39.6289 14.3984 39.707 14.375 39.7852C14.3594 39.8555 14.3242 39.918 14.2695 39.9727C14.2852 40.1289 14.2969 40.2891 14.3047 40.4531C14.3125 40.6094 14.3164 40.7656 14.3164 40.9219C14.3164 41.3672 14.2891 41.8125 14.2344 42.2578C14.1797 42.7031 14.1172 43.1484 14.0469 43.5938C13.9766 44.0391 13.9141 44.4844 13.8594 44.9297C13.8047 45.375 13.7773 45.8242 13.7773 46.2773V46.6172C13.7773 46.7266 13.7852 46.8398 13.8008 46.957C13.7539 47.0664 13.7305 47.1836 13.7305 47.3086C13.7305 47.4805 13.7695 47.6484 13.8477 47.8125C13.9258 47.9766 14.0195 48.125 14.1289 48.2578C14.168 48.2656 14.2031 48.2695 14.2344 48.2695C14.2734 48.2773 14.3125 48.2812 14.3516 48.2812C14.5547 48.2812 14.7344 48.2383 14.8906 48.1523C15.0547 48.0664 15.207 47.9609 15.3477 47.8359C15.4961 47.7109 15.6406 47.582 15.7812 47.4492C15.9219 47.3164 16.0742 47.207 16.2383 47.1211C16.4883 46.8008 16.7227 46.4805 16.9414 46.1602C17.1602 45.832 17.3711 45.4922 17.5742 45.1406C17.5898 44.9531 17.6367 44.7656 17.7148 44.5781C17.8008 44.3828 17.8867 44.1914 17.9727 44.0039C18.0664 43.8164 18.1484 43.6328 18.2188 43.4531C18.2969 43.2734 18.3359 43.1016 18.3359 42.9375C18.3359 42.8516 18.3086 42.793 18.2539 42.7617C18.332 42.5586 18.3906 42.3477 18.4297 42.1289C18.4688 41.9102 18.5 41.6914 18.5234 41.4727C18.5547 41.2539 18.5859 41.0391 18.6172 40.8281C18.6484 40.6094 18.6953 40.3945 18.7578 40.1836C18.7578 40.1367 18.7539 40.0898 18.7461 40.043C18.7461 39.9961 18.7461 39.9492 18.7461 39.9023C18.7461 39.543 18.7812 39.1914 18.8516 38.8477C18.9219 38.4961 18.957 38.1406 18.957 37.7812C18.957 37.6953 18.9492 37.6172 18.9336 37.5469C18.9258 37.4688 18.9219 37.3945 18.9219 37.3242C18.9219 37.2617 18.9414 37.2227 18.9805 37.207C19.0273 37.1914 19.0508 37.1484 19.0508 37.0781C19.0508 37.0156 19.043 36.9492 19.0273 36.8789C19.0195 36.8086 19.0156 36.7344 19.0156 36.6562C19.0156 36.4141 19.0391 36.1758 19.0859 35.9414C19.1328 35.707 19.1562 35.4688 19.1562 35.2266V35.0859C19.1562 35.0312 19.1484 34.9805 19.1328 34.9336C19.1875 34.8477 19.2617 34.793 19.3555 34.7695C19.4492 34.7383 19.5391 34.7227 19.625 34.7227C19.7656 34.7227 19.8828 34.7383 19.9766 34.7695C20.125 35.168 20.25 35.5781 20.3516 36C20.4531 36.4141 20.5352 36.8359 20.5977 37.2656C20.6133 37.3672 20.6328 37.4766 20.6562 37.5938C20.6875 37.7031 20.7031 37.8125 20.7031 37.9219C20.7031 37.9453 20.6953 37.9727 20.6797 38.0039C20.6719 38.0352 20.6641 38.0664 20.6562 38.0977C20.6484 38.1602 20.6406 38.2227 20.6328 38.2852C20.6328 38.3477 20.6328 38.4102 20.6328 38.4727C20.6328 38.6602 20.6445 38.8477 20.668 39.0352C20.6914 39.2227 20.7031 39.4141 20.7031 39.6094C20.7031 39.8281 20.6719 40.0391 20.6094 40.2422C20.5547 40.4375 20.5117 40.6445 20.4805 40.8633C20.4492 41.0898 20.4375 41.3125 20.4453 41.5312C20.4531 41.75 20.4375 41.9727 20.3984 42.1992C20.3828 42.293 20.3594 42.3867 20.3281 42.4805C20.2969 42.5664 20.2812 42.6602 20.2812 42.7617C20.2812 42.832 20.2852 42.9023 20.293 42.9727C20.3086 43.043 20.3164 43.1172 20.3164 43.1953C20.3164 43.3125 20.2891 43.4023 20.2344 43.4648C20.25 43.5273 20.2617 43.5859 20.2695 43.6406C20.2773 43.6875 20.293 43.7422 20.3164 43.8047C20.2773 43.8516 20.25 43.9023 20.2344 43.957C20.2188 44.0117 20.2109 44.0703 20.2109 44.1328C20.2109 44.2109 20.2148 44.2852 20.2227 44.3555C20.2305 44.418 20.2344 44.4844 20.2344 44.5547C20.2344 44.7188 20.207 44.875 20.1523 45.0234C20.1055 45.1719 20.0742 45.3242 20.0586 45.4805C20.0508 45.5898 20.0469 45.6992 20.0469 45.8086C20.0547 45.9102 20.0586 46.0156 20.0586 46.125C20.0586 46.2422 20.0508 46.3555 20.0352 46.4648C20.0273 46.5742 19.9961 46.6836 19.9414 46.793C19.957 46.8398 19.9766 46.8867 20 46.9336C20.0234 46.9805 20.0586 47.0156 20.1055 47.0391C20.1055 47.2812 20.1367 47.5273 20.1992 47.7773C20.2695 48.0195 20.3633 48.25 20.4805 48.4688C20.5039 48.5156 20.5391 48.5508 20.5859 48.5742C20.6328 48.5977 20.6758 48.6211 20.7148 48.6445C20.7539 48.6758 20.7852 48.7109 20.8086 48.75C20.832 48.7891 20.8359 48.8477 20.8203 48.9258C20.8359 48.9336 20.8594 48.9375 20.8906 48.9375C20.9531 48.9375 21.0039 48.9219 21.043 48.8906C21.0898 48.8594 21.1445 48.8438 21.207 48.8438H21.2891C21.3594 48.9141 21.4297 48.9961 21.5 49.0898C21.5781 49.1836 21.6172 49.2852 21.6172 49.3945ZM31.0391 39.7383C31.0391 39.8086 31.0234 39.875 30.9922 39.9375L30.9102 40.1133C30.8867 40.168 30.8633 40.2266 30.8398 40.2891C30.8164 40.3516 30.8086 40.4258 30.8164 40.5117C30.707 40.6367 30.5977 40.7578 30.4883 40.875C30.3789 40.9922 30.2812 41.125 30.1953 41.2734C30.1094 41.2656 30.043 41.2852 29.9961 41.332C29.957 41.3789 29.9258 41.4414 29.9023 41.5195C29.7383 41.5742 29.5938 41.6602 29.4688 41.7773C29.3438 41.8867 29.2344 42.0078 29.1406 42.1406C28.7266 42.3125 28.3398 42.5234 27.9805 42.7734C27.6211 43.0234 27.293 43.3164 26.9961 43.6523C27.1367 43.6523 27.2734 43.668 27.4062 43.6992C27.5469 43.7305 27.6836 43.7656 27.8164 43.8047C27.957 43.8359 28.0938 43.8672 28.2266 43.8984C28.3594 43.9219 28.4961 43.9258 28.6367 43.9102C28.7383 44.0039 28.8516 44.082 28.9766 44.1445C29.1094 44.207 29.2383 44.2656 29.3633 44.3203C29.4961 44.375 29.6211 44.4375 29.7383 44.5078C29.8633 44.5781 29.9727 44.6641 30.0664 44.7656C30.0664 44.7812 30.0625 44.7969 30.0547 44.8125C30.0547 44.8203 30.0547 44.832 30.0547 44.8477C30.0547 44.9102 30.0703 44.9727 30.1016 45.0352C30.1328 45.0898 30.1484 45.1484 30.1484 45.2109C30.1094 45.2734 30.0742 45.3398 30.043 45.4102C30.0117 45.4805 29.9727 45.543 29.9258 45.5977C29.8867 45.6523 29.8398 45.6992 29.7852 45.7383C29.7305 45.7773 29.6562 45.8008 29.5625 45.8086C29.5234 45.9414 29.4609 46.0469 29.375 46.125C29.2891 46.1953 29.1914 46.2617 29.082 46.3242C28.9805 46.3789 28.8789 46.4375 28.7773 46.5C28.6758 46.5547 28.5898 46.6289 28.5195 46.7227C28.2852 46.7773 28.0547 46.8555 27.8281 46.957C27.6094 47.0508 27.4141 47.1875 27.2422 47.3672C27.125 47.3828 27.0039 47.4023 26.8789 47.4258C26.7617 47.4414 26.6445 47.4492 26.5273 47.4492C26.3633 47.4492 26.2305 47.418 26.1289 47.3555C26.0273 47.2852 25.9688 47.1602 25.9531 46.9805C25.9766 46.9258 26.0117 46.8789 26.0586 46.8398L26.2109 46.7227C26.2656 46.6836 26.3125 46.6445 26.3516 46.6055C26.3984 46.5586 26.4336 46.5039 26.457 46.4414C26.4727 46.4414 26.4922 46.4453 26.5156 46.4531C26.5391 46.4531 26.5625 46.4531 26.5859 46.4531C26.6797 46.4531 26.7539 46.4336 26.8086 46.3945C26.8633 46.3555 26.9141 46.3164 26.9609 46.2773C27.0156 46.2383 27.0742 46.2031 27.1367 46.1719C27.1992 46.1406 27.2812 46.1289 27.3828 46.1367C27.4375 46.0352 27.5195 45.9609 27.6289 45.9141C27.7383 45.8594 27.8516 45.8125 27.9688 45.7734C28.0859 45.7266 28.1953 45.6758 28.2969 45.6211C28.4062 45.5586 28.4805 45.4688 28.5195 45.3516C28.4805 45.2891 28.4297 45.2422 28.3672 45.2109C28.3047 45.1719 28.2344 45.1406 28.1562 45.1172L27.9336 45.0469C27.8633 45.0234 27.8008 44.9961 27.7461 44.9648C27.6602 44.9883 27.5781 45 27.5 45C27.3359 45 27.1758 44.9844 27.0195 44.9531C26.8633 44.9219 26.7031 44.9062 26.5391 44.9062C26.3906 44.9062 26.2617 44.9258 26.1523 44.9648C26.1133 44.957 26.0703 44.9453 26.0234 44.9297C25.9844 44.9141 25.9453 44.8984 25.9062 44.8828C25.7266 44.9531 25.5391 44.9883 25.3438 44.9883H24.582C24.5195 44.9883 24.457 44.9961 24.3945 45.0117C24.3086 45.168 24.2656 45.3359 24.2656 45.5156C24.2656 45.6484 24.2852 45.7773 24.3242 45.9023C24.3633 46.0195 24.4023 46.1445 24.4414 46.2773C24.5977 46.418 24.7422 46.5859 24.875 46.7812C25.0078 46.9688 25.0742 47.1758 25.0742 47.4023C25.0742 47.457 25.0703 47.5 25.0625 47.5312C24.9844 47.4766 24.8828 47.4492 24.7578 47.4492C24.6484 47.4492 24.543 47.4648 24.4414 47.4961C24.3477 47.5273 24.2461 47.5508 24.1367 47.5664C24.0508 47.5273 23.9609 47.4883 23.8672 47.4492C23.7734 47.4023 23.6836 47.3477 23.5977 47.2852C23.5352 47.1523 23.4727 47.0273 23.4102 46.9102C23.3477 46.7852 23.2695 46.668 23.1758 46.5586V46.5117C23.1758 46.2383 23.1523 45.9688 23.1055 45.7031C23.0664 45.4375 23.0469 45.168 23.0469 44.8945C23.0469 44.7695 23.0508 44.6445 23.0586 44.5195C23.0742 44.3867 23.1133 44.2656 23.1758 44.1562C23.1523 43.9688 23.1406 43.7734 23.1406 43.5703C23.1406 43.1641 23.1641 42.7578 23.2109 42.3516C23.2578 41.9453 23.2812 41.5312 23.2812 41.1094C23.2812 41.0234 23.2773 40.9375 23.2695 40.8516C23.2695 40.7656 23.2656 40.6797 23.2578 40.5938H23.2109C23.1094 40.5938 23.0117 40.6094 22.918 40.6406C22.8242 40.6641 22.7305 40.6914 22.6367 40.7227C22.543 40.7539 22.4453 40.7852 22.3438 40.8164C22.2422 40.8398 22.1406 40.8516 22.0391 40.8516C21.9766 40.8828 21.9258 40.9141 21.8867 40.9453C21.8477 40.9766 21.8086 41.0039 21.7695 41.0273C21.7305 41.0508 21.6875 41.0703 21.6406 41.0859C21.5859 41.1016 21.5234 41.1055 21.4531 41.0977C21.3672 41.1523 21.3008 41.1953 21.2539 41.2266C21.1992 41.25 21.125 41.2773 21.0312 41.3086C20.9844 41.3242 20.9453 41.3477 20.9141 41.3789L20.8203 41.4609C20.7891 41.4844 20.7539 41.5078 20.7148 41.5312C20.6758 41.5547 20.625 41.5664 20.5625 41.5664C20.5078 41.5664 20.4688 41.5625 20.4453 41.5547C20.3984 41.5156 20.3594 41.4688 20.3281 41.4141C20.2891 41.3594 20.2539 41.3086 20.2227 41.2617C20.1836 41.207 20.1445 41.1602 20.1055 41.1211C20.0586 41.0742 20.0039 41.0391 19.9414 41.0156C19.9727 40.9766 19.9883 40.9453 19.9883 40.9219C19.9805 40.8906 19.9766 40.8555 19.9766 40.8164C19.9766 40.793 19.9805 40.7773 19.9883 40.7695C20.0273 40.6289 20.0977 40.5195 20.1992 40.4414C20.3008 40.3555 20.4141 40.2891 20.5391 40.2422C20.6641 40.1875 20.793 40.1406 20.9258 40.1016C21.0508 40.0625 21.168 40.0156 21.2773 39.9609C21.582 39.9688 21.8594 39.9414 22.1094 39.8789C22.3594 39.8086 22.6172 39.7109 22.8828 39.5859C22.9297 39.6094 22.9766 39.6211 23.0234 39.6211C23.0625 39.6211 23.1016 39.6172 23.1406 39.6094L23.2578 39.5859C23.3516 39.5078 23.4531 39.457 23.5625 39.4336C23.6719 39.4102 23.7812 39.3906 23.8906 39.375C24 39.3594 24.1055 39.3438 24.207 39.3281C24.3086 39.3047 24.3984 39.2617 24.4766 39.1992H24.5234C24.7109 39.1992 24.8984 39.168 25.0859 39.1055C25.2812 39.043 25.4688 39.0195 25.6484 39.0352C25.8047 38.9492 25.9492 38.8945 26.082 38.8711C26.2148 38.8477 26.3672 38.8359 26.5391 38.8359C26.5781 38.8359 26.625 38.8203 26.6797 38.7891C26.7344 38.75 26.8008 38.7305 26.8789 38.7305C26.8945 38.7305 26.9062 38.7344 26.9141 38.7422C26.9297 38.7422 26.9453 38.7422 26.9609 38.7422C27.0312 38.7422 27.0781 38.7188 27.1016 38.6719C27.1328 38.625 27.207 38.6016 27.3242 38.6016C27.3789 38.6016 27.4297 38.6055 27.4766 38.6133C27.5234 38.6133 27.5703 38.6133 27.6172 38.6133C27.6719 38.6133 27.707 38.5938 27.7227 38.5547C27.7383 38.5078 27.7734 38.4883 27.8281 38.4961C27.8516 38.5273 27.8906 38.543 27.9453 38.543C28 38.5352 28.043 38.5312 28.0742 38.5312C28.1289 38.5312 28.1602 38.5469 28.168 38.5781C28.293 38.5 28.4297 38.4492 28.5781 38.4258C28.7344 38.4023 28.8828 38.3906 29.0234 38.3906C29.0781 38.3906 29.1328 38.3945 29.1875 38.4023C29.2422 38.4023 29.3008 38.4062 29.3633 38.4141C29.4336 38.3672 29.5156 38.3438 29.6094 38.3438C29.6641 38.3438 29.75 38.3672 29.8672 38.4141C29.9922 38.4609 30.1211 38.5156 30.2539 38.5781C30.3867 38.6406 30.5078 38.707 30.6172 38.7773C30.7266 38.8477 30.793 38.9062 30.8164 38.9531C30.832 38.9688 30.8398 39.0039 30.8398 39.0586C30.8477 39.1133 30.8594 39.1602 30.875 39.1992C30.9141 39.293 30.9492 39.3828 30.9805 39.4688C31.0195 39.5469 31.0391 39.6367 31.0391 39.7383ZM29.7383 39.8672C29.7383 39.8516 29.7344 39.8359 29.7266 39.8203C29.7266 39.7969 29.7266 39.7773 29.7266 39.7617C29.6875 39.7148 29.6328 39.6797 29.5625 39.6562C29.5 39.6328 29.4297 39.6133 29.3516 39.5977C29.2812 39.582 29.207 39.5703 29.1289 39.5625C29.0586 39.5469 28.9961 39.5273 28.9414 39.5039C28.7773 39.5586 28.5977 39.5859 28.4023 39.5859C28.2227 39.5859 28.0625 39.5586 27.9219 39.5039C27.8516 39.5742 27.7617 39.6289 27.6523 39.668C27.543 39.707 27.4258 39.7383 27.3008 39.7617C27.1836 39.7773 27.0625 39.7891 26.9375 39.7969C26.8203 39.7969 26.7148 39.7969 26.6211 39.7969C26.5898 39.7969 26.5352 39.8203 26.457 39.8672C26.3789 39.9141 26.3086 39.9375 26.2461 39.9375C26.1992 39.9375 26.1562 39.918 26.1172 39.8789C26.0469 39.9336 25.9492 39.9805 25.8242 40.0195C25.6992 40.0586 25.5703 40.0938 25.4375 40.125C25.3047 40.1484 25.168 40.1758 25.0273 40.207C24.8945 40.2383 24.7812 40.2695 24.6875 40.3008C24.5938 40.5039 24.543 40.7266 24.5352 40.9688C24.5273 41.2031 24.5234 41.4336 24.5234 41.6602C24.5234 41.793 24.5156 41.9219 24.5 42.0469C24.4844 42.1719 24.4766 42.3008 24.4766 42.4336C24.4766 42.4961 24.4805 42.5625 24.4883 42.6328C24.4961 42.6953 24.5195 42.7578 24.5586 42.8203C24.4961 42.8672 24.4531 42.9297 24.4297 43.0078C24.4141 43.0781 24.4062 43.1484 24.4062 43.2188C24.4062 43.3047 24.4141 43.3828 24.4297 43.4531C24.4453 43.5234 24.4609 43.5898 24.4766 43.6523C24.7266 43.6289 24.9531 43.582 25.1562 43.5117C25.3672 43.4414 25.5625 43.3555 25.7422 43.2539C25.9297 43.1523 26.1094 43.0352 26.2812 42.9023C26.4531 42.7695 26.6328 42.6289 26.8203 42.4805C26.8984 42.4648 26.9609 42.4414 27.0078 42.4102C27.0625 42.3789 27.1289 42.3633 27.207 42.3633C27.2383 42.2539 27.2969 42.1797 27.3828 42.1406C27.4688 42.0938 27.5352 42.0273 27.582 41.9414C27.6758 41.918 27.7539 41.8867 27.8164 41.8477C27.8867 41.8008 27.9531 41.7578 28.0156 41.7188C28.0781 41.6719 28.1445 41.6289 28.2148 41.5898C28.293 41.5508 28.3789 41.5273 28.4727 41.5195C28.6055 41.3633 28.7422 41.207 28.8828 41.0508C29.0312 40.8945 29.2031 40.7695 29.3984 40.6758C29.4297 40.5977 29.4648 40.5312 29.5039 40.4766C29.543 40.4141 29.5781 40.3555 29.6094 40.3008C29.6484 40.2383 29.6797 40.1758 29.7031 40.1133C29.7266 40.043 29.7383 39.9609 29.7383 39.8672ZM33.7227 46.3945C33.6836 46.457 33.6367 46.5156 33.582 46.5703C33.5273 46.6172 33.4766 46.668 33.4297 46.7227C33.375 46.7461 33.3125 46.7578 33.2422 46.7578C33.1797 46.7578 33.1172 46.7578 33.0547 46.7578C33 46.75 32.9453 46.75 32.8906 46.7578C32.8438 46.7578 32.8047 46.7734 32.7734 46.8047C32.7109 46.7891 32.6641 46.7617 32.6328 46.7227C32.6016 46.6758 32.5469 46.6484 32.4688 46.6406C32.4375 46.6328 32.4062 46.6328 32.375 46.6406C32.2578 46.5078 32.1484 46.3672 32.0469 46.2188C31.9531 46.0703 31.8633 45.9297 31.7773 45.7969C31.7695 45.5078 31.7461 45.2148 31.707 44.918C31.6992 44.8477 31.6875 44.7773 31.6719 44.707C31.6562 44.6367 31.6445 44.5703 31.6367 44.5078C31.6367 44.4297 31.6406 44.3555 31.6484 44.2852C31.6641 44.207 31.6758 44.1367 31.6836 44.0742C31.7148 43.8477 31.75 43.625 31.7891 43.4062C31.8281 43.1875 31.8633 42.9648 31.8945 42.7383C31.9258 42.5352 31.9414 42.3242 31.9414 42.1055C31.9414 41.8789 31.9062 41.668 31.8359 41.4727L31.8242 41.4141C31.8398 41.3516 31.8555 41.3008 31.8711 41.2617C31.8945 41.2148 31.9102 41.1641 31.918 41.1094C31.9336 41.0234 31.9141 40.9609 31.8594 40.9219C31.8828 40.8594 31.9219 40.8203 31.9766 40.8047C32.0312 40.7812 32.0625 40.7344 32.0703 40.6641C32.0781 40.6328 32.0781 40.6016 32.0703 40.5703C32.1328 40.5469 32.1953 40.5273 32.2578 40.5117C32.3281 40.4883 32.3945 40.4844 32.457 40.5C32.5586 40.5156 32.6484 40.5508 32.7266 40.6055C32.8047 40.6523 32.8789 40.707 32.9492 40.7695C33.0742 41.1445 33.125 41.543 33.1016 41.9648C33.0781 42.3789 33.0391 42.7969 32.9844 43.2188C32.9297 43.6406 32.8945 44.0547 32.8789 44.4609C32.8633 44.8594 32.9258 45.2305 33.0664 45.5742L33.0898 45.5859C33.1289 45.5938 33.1602 45.582 33.1836 45.5508C33.207 45.5117 33.2383 45.4961 33.2773 45.5039C33.3086 45.5195 33.3281 45.5273 33.3359 45.5273C33.3672 45.6836 33.418 45.832 33.4883 45.9727C33.5586 46.1133 33.6367 46.2539 33.7227 46.3945ZM45.8516 50.5898C45.8047 50.6445 45.7383 50.6758 45.6523 50.6836C45.5742 50.6992 45.4922 50.707 45.4062 50.707C45.3203 50.7148 45.2305 50.7227 45.1367 50.7305C45.0508 50.7383 44.9805 50.7656 44.9258 50.8125C44.8789 50.7969 44.8477 50.7695 44.832 50.7305C44.8164 50.6914 44.793 50.6602 44.7617 50.6367H44.6328C44.4453 50.6367 44.2695 50.6055 44.1055 50.543C43.9492 50.4883 43.7969 50.4219 43.6484 50.3438C43.5 50.2656 43.3516 50.1836 43.2031 50.0977C43.0547 50.0117 42.8984 49.9414 42.7344 49.8867C42.5078 49.6133 42.3008 49.3242 42.1133 49.0195C41.9258 48.7227 41.7461 48.418 41.5742 48.1055L41.0586 47.1914C40.8867 46.8789 40.707 46.5742 40.5195 46.2773L40.4961 46.2656C40.4336 46.2656 40.3906 46.2773 40.3672 46.3008C40.3438 46.3242 40.3203 46.3359 40.2969 46.3359C40.2812 46.3359 40.2539 46.3164 40.2148 46.2773C39.8477 46.4336 39.4688 46.5625 39.0781 46.6641C38.6953 46.7656 38.3047 46.8477 37.9062 46.9102C37.7969 46.9258 37.6914 46.9375 37.5898 46.9453C37.4883 46.9531 37.3828 46.9648 37.2734 46.9805C37.2109 46.9961 37.1523 47.0234 37.0977 47.0625C37.0508 47.0938 36.9883 47.1094 36.9102 47.1094C36.8633 47.1094 36.8164 47.1055 36.7695 47.0977C36.7227 47.082 36.6836 47.0586 36.6523 47.0273C36.4961 47.0742 36.3359 47.0977 36.1719 47.0977C35.8906 47.0977 35.625 47.0352 35.375 46.9102C35.1328 46.7773 34.8984 46.6328 34.6719 46.4766C34.6328 46.4062 34.5977 46.3281 34.5664 46.2422C34.5273 46.1562 34.4648 46.0938 34.3789 46.0547C34.3555 45.8516 34.3164 45.6562 34.2617 45.4688C34.207 45.2734 34.1484 45.0781 34.0859 44.8828C34.2891 44.3359 34.625 43.8906 35.0938 43.5469C35.1484 43.5078 35.2031 43.4727 35.2578 43.4414C35.3125 43.4023 35.3672 43.3633 35.4219 43.3242C35.4531 43.3164 35.4688 43.2969 35.4688 43.2656C35.4688 43.2422 35.4648 43.2227 35.457 43.207C35.4492 43.1914 35.4453 43.1758 35.4453 43.1602C35.4453 43.1445 35.457 43.1289 35.4805 43.1133C35.6758 43.0664 35.832 42.9805 35.9492 42.8555C36.0664 42.7227 36.1992 42.5977 36.3477 42.4805C36.457 42.4883 36.5547 42.4648 36.6406 42.4102C36.7344 42.3477 36.8203 42.2852 36.8984 42.2227C36.9297 42.207 36.9453 42.1875 36.9453 42.1641V42.0586C37.0234 42.043 37.0781 42.0352 37.1094 42.0352C37.1406 42.0352 37.168 42.0273 37.1914 42.0117C37.2148 41.9961 37.2383 41.9766 37.2617 41.9531L37.3789 41.8359C37.5508 41.6641 37.7578 41.5156 38 41.3906C38.25 41.2578 38.5078 41.1406 38.7734 41.0391C39.0391 40.9297 39.3047 40.8281 39.5703 40.7344C39.8359 40.6406 40.0781 40.5391 40.2969 40.4297C40.4844 40.4141 40.6719 40.3906 40.8594 40.3594C41.0469 40.3281 41.2305 40.3125 41.4102 40.3125C41.5664 40.3125 41.7148 40.3359 41.8555 40.3828C42.0039 40.4297 42.1172 40.5273 42.1953 40.6758C42.6875 40.6914 43.1406 40.7891 43.5547 40.9688C43.9688 41.1406 44.3711 41.3633 44.7617 41.6367C44.793 41.7461 44.8359 41.8477 44.8906 41.9414C44.9453 42.0352 45 42.1328 45.0547 42.2344C45.1094 42.3281 45.1523 42.4258 45.1836 42.5273C45.2227 42.6289 45.2422 42.7383 45.2422 42.8555C45.2422 43.0742 45.1992 43.2812 45.1133 43.4766C45.0273 43.6719 44.9648 43.8711 44.9258 44.0742C44.5977 44.3477 44.25 44.5859 43.8828 44.7891C43.5156 44.9922 43.1484 45.207 42.7812 45.4336C42.5859 45.4336 42.4258 45.4688 42.3008 45.5391C42.1836 45.6094 42.0469 45.6992 41.8906 45.8086C41.9062 45.8711 41.9336 45.9336 41.9727 45.9961C42.0117 46.0508 42.0312 46.1094 42.0312 46.1719C42.0312 46.2188 42.0156 46.2656 41.9844 46.3125C42.1172 46.4219 42.2148 46.5703 42.2773 46.7578C42.3398 46.9375 42.3984 47.1055 42.4531 47.2617C42.5 47.418 42.5586 47.543 42.6289 47.6367C42.707 47.7227 42.7891 47.832 42.875 47.9648C42.9844 48.1211 43.0898 48.2773 43.1914 48.4336C43.293 48.5977 43.3984 48.7578 43.5078 48.9141C43.5625 48.9531 43.6367 49.0078 43.7305 49.0781C43.832 49.1484 43.9336 49.2188 44.0352 49.2891C44.1367 49.3672 44.2344 49.4375 44.3281 49.5C44.4219 49.5625 44.4961 49.6055 44.5508 49.6289C44.5977 49.6523 44.6445 49.6641 44.6914 49.6641C44.7227 49.6641 44.75 49.6602 44.7734 49.6523L44.8438 49.6289C44.8359 49.6367 44.832 49.6484 44.832 49.6641C44.832 49.7031 44.8438 49.7227 44.8672 49.7227C44.8906 49.7227 44.9102 49.75 44.9258 49.8047C45.1836 49.8203 45.3906 49.8906 45.5469 50.0156C45.7109 50.1406 45.8125 50.332 45.8516 50.5898ZM44.2109 42.9844C44.2031 42.8203 44.168 42.6836 44.1055 42.5742C44.043 42.4648 43.9805 42.3359 43.918 42.1875C43.8086 42.1484 43.7148 42.1055 43.6367 42.0586C43.5664 42.0117 43.4961 41.9688 43.4258 41.9297C43.3555 41.8828 43.2734 41.8516 43.1797 41.8359C43.0938 41.8125 42.9883 41.8047 42.8633 41.8125C42.7461 41.7422 42.6211 41.707 42.4883 41.707C42.2852 41.707 42.0859 41.75 41.8906 41.8359C41.7031 41.9219 41.5078 41.9844 41.3047 42.0234C41.3125 42.0312 41.3164 42.0469 41.3164 42.0703C41.3164 42.0938 41.3086 42.1172 41.293 42.1406C41.2773 42.1562 41.2695 42.1758 41.2695 42.1992V42.2227C41.332 42.2773 41.4023 42.3125 41.4805 42.3281C41.5664 42.3438 41.6367 42.3828 41.6914 42.4453C41.668 42.4844 41.6562 42.5312 41.6562 42.5859C41.6562 42.6328 41.6719 42.6719 41.7031 42.7031C41.7344 42.7344 41.7695 42.7617 41.8086 42.7852C41.8477 42.8086 41.8828 42.8359 41.9141 42.8672C41.9531 42.8984 41.9766 42.9375 41.9844 42.9844C41.9609 43.0938 41.9141 43.1836 41.8438 43.2539C41.7734 43.3242 41.6914 43.3828 41.5977 43.4297C41.5117 43.4688 41.418 43.5 41.3164 43.5234C41.2148 43.5469 41.1172 43.5625 41.0234 43.5703C40.9844 43.5312 40.9453 43.4961 40.9062 43.4648C40.875 43.4336 40.8555 43.3867 40.8477 43.3242C40.707 43.3008 40.5898 43.2539 40.4961 43.1836C40.4102 43.1133 40.3281 43.0352 40.25 42.9492C40.1797 42.8555 40.1094 42.7617 40.0391 42.668C39.9688 42.5742 39.8867 42.4844 39.793 42.3984C39.8242 42.3438 39.8398 42.2773 39.8398 42.1992C39.8398 42.1445 39.8281 42.0938 39.8047 42.0469C39.7812 42 39.7383 41.9766 39.6758 41.9766C39.6367 41.9766 39.6094 41.9922 39.5938 42.0234L39.5469 42.1055C39.5312 42.1289 39.5117 42.1562 39.4883 42.1875C39.4648 42.2109 39.4258 42.2227 39.3711 42.2227H39.0898C38.9102 42.3477 38.7227 42.4648 38.5273 42.5742C38.332 42.6758 38.1367 42.7812 37.9414 42.8906C37.7539 42.9922 37.5703 43.1055 37.3906 43.2305C37.2109 43.3555 37.0469 43.4961 36.8984 43.6523C36.8594 43.668 36.8242 43.6914 36.793 43.7227C36.7695 43.7461 36.7344 43.75 36.6875 43.7344C36.6406 43.8438 36.5586 43.9453 36.4414 44.0391C36.3242 44.1328 36.2031 44.2305 36.0781 44.332C35.9531 44.4258 35.8398 44.5312 35.7383 44.6484C35.6445 44.7656 35.5977 44.8984 35.5977 45.0469C35.5977 45.2031 35.6602 45.3438 35.7852 45.4688C35.918 45.5938 36.0586 45.6562 36.207 45.6562C36.2383 45.6562 36.2852 45.6484 36.3477 45.6328C36.3398 45.6719 36.3477 45.707 36.3711 45.7383C36.4023 45.7695 36.4414 45.7812 36.4883 45.7734C36.5742 45.7969 36.6562 45.8125 36.7344 45.8203C36.8203 45.8281 36.9102 45.832 37.0039 45.832C37.0977 45.832 37.1914 45.832 37.2852 45.832C37.3789 45.8242 37.4727 45.8203 37.5664 45.8203C37.6992 45.8203 37.8438 45.832 38 45.8555C38.1328 45.7695 38.2734 45.7148 38.4219 45.6914C38.5781 45.6602 38.7266 45.6133 38.8672 45.5508L39.043 45.6328C39.1523 45.5156 39.2969 45.4375 39.4766 45.3984C39.6562 45.3516 39.8203 45.3086 39.9688 45.2695C39.9688 45.1367 39.9453 45.0234 39.8984 44.9297C39.8594 44.8359 39.8125 44.75 39.7578 44.6719C39.7109 44.5859 39.6641 44.5 39.6172 44.4141C39.5703 44.3203 39.5469 44.207 39.5469 44.0742C39.5312 44.082 39.5039 44.0859 39.4648 44.0859C39.4336 44.0781 39.418 44.0625 39.418 44.0391C39.418 43.875 39.4336 43.707 39.4648 43.5352C39.5039 43.3555 39.6016 43.2148 39.7578 43.1133C39.8047 43.1367 39.8555 43.1484 39.9102 43.1484C39.9727 43.1484 40.0273 43.1406 40.0742 43.125C40.1211 43.1094 40.168 43.0898 40.2148 43.0664C40.2383 43.1367 40.2812 43.1641 40.3438 43.1484C40.3984 43.2891 40.4648 43.4258 40.543 43.5586C40.6289 43.6914 40.707 43.8242 40.7773 43.957C40.8555 44.082 40.9258 44.2148 40.9883 44.3555C41.0508 44.4883 41.0898 44.6367 41.1055 44.8008H41.1992C41.2773 44.8008 41.3438 44.793 41.3984 44.7773C41.4531 44.7539 41.5039 44.7266 41.5508 44.6953C41.5977 44.6641 41.6445 44.6367 41.6914 44.6133C41.7383 44.582 41.793 44.5586 41.8555 44.543C41.8789 44.5664 41.918 44.5781 41.9727 44.5781C42.0195 44.5781 42.0664 44.5625 42.1133 44.5312C42.1602 44.5 42.2148 44.4844 42.2773 44.4844C42.293 44.4844 42.3047 44.4883 42.3125 44.4961C42.3281 44.4961 42.3438 44.4961 42.3594 44.4961C42.4766 44.3945 42.6133 44.3086 42.7695 44.2383C42.9258 44.168 43.082 44.0977 43.2383 44.0273C43.3945 43.9492 43.5391 43.8672 43.6719 43.7812C43.8125 43.6953 43.9258 43.5859 44.0117 43.4531C44.0352 43.4141 44.0469 43.3711 44.0469 43.3242C44.0547 43.2773 44.0625 43.2344 44.0703 43.1953C44.0781 43.1484 44.0898 43.1094 44.1055 43.0781C44.1289 43.0391 44.1641 43.0078 44.2109 42.9844ZM53.1875 46.1016C53.1562 46.2188 53.1055 46.3164 53.0352 46.3945C52.9648 46.4727 52.8828 46.543 52.7891 46.6055C52.7031 46.668 52.6094 46.7266 52.5078 46.7812C52.4062 46.8281 52.3086 46.8828 52.2148 46.9453H52.0625C51.7344 46.9453 51.4805 46.8672 51.3008 46.7109C51.1289 46.5469 50.9961 46.3477 50.9023 46.1133C50.8086 45.8711 50.7383 45.6133 50.6914 45.3398C50.6523 45.0664 50.6016 44.8164 50.5391 44.5898C50.4453 44.668 50.3672 44.7617 50.3047 44.8711C50.2422 44.9727 50.1758 45.0742 50.1055 45.1758C50.043 45.2773 49.9688 45.3711 49.8828 45.457C49.8047 45.543 49.6992 45.6016 49.5664 45.6328C49.543 45.6875 49.5156 45.7422 49.4844 45.7969C49.4609 45.8516 49.4453 45.9102 49.4375 45.9727C49.2656 46.0664 49.1094 46.1758 48.9688 46.3008C48.8281 46.4258 48.6875 46.5547 48.5469 46.6875C48.4062 46.8203 48.2617 46.9492 48.1133 47.0742C47.9727 47.1914 47.8125 47.2891 47.6328 47.3672C47.625 47.3594 47.6094 47.3555 47.5859 47.3555C47.4922 47.3555 47.4062 47.3789 47.3281 47.4258C47.25 47.4648 47.1641 47.4844 47.0703 47.4844C47.0078 47.4844 46.9492 47.4727 46.8945 47.4492C46.8477 47.4258 46.7969 47.3984 46.7422 47.3672C46.6953 47.3359 46.6445 47.3125 46.5898 47.2969C46.5352 47.2812 46.4766 47.2773 46.4141 47.2852C46.3359 47.1445 46.2305 47.0156 46.0977 46.8984C45.9727 46.7734 45.8945 46.6328 45.8633 46.4766C45.8477 46.4062 45.8359 46.3359 45.8281 46.2656C45.8281 46.1875 45.8203 46.1094 45.8047 46.0312C45.7812 45.9141 45.75 45.7969 45.7109 45.6797C45.6719 45.5547 45.6406 45.4297 45.6172 45.3047C45.6562 45.0938 45.6953 44.8633 45.7344 44.6133C45.7656 44.3555 45.8047 44.1016 45.8516 43.8516C45.9062 43.5938 45.9766 43.3516 46.0625 43.125C46.1562 42.8906 46.2734 42.6914 46.4141 42.5273L46.4023 42.4453C46.4023 42.3203 46.4258 42.2031 46.4727 42.0938C46.5195 41.9844 46.5703 41.8789 46.625 41.7773C46.6797 41.6758 46.7266 41.5742 46.7656 41.4727C46.8047 41.3711 46.8125 41.2578 46.7891 41.1328C46.8828 41.0859 46.9805 41.0469 47.082 41.0156C47.1836 40.9844 47.2891 40.9688 47.3984 40.9688C47.5 40.9688 47.5938 40.9844 47.6797 41.0156C47.6641 41.0781 47.6914 41.1172 47.7617 41.1328V41.168C47.7617 41.332 47.7422 41.4922 47.7031 41.6484C47.6641 41.8047 47.6172 41.9609 47.5625 42.1172C47.5078 42.2656 47.4531 42.418 47.3984 42.5742C47.3516 42.7227 47.3164 42.875 47.293 43.0312C47.2617 43.0391 47.2383 43.0547 47.2227 43.0781C47.2148 43.1016 47.207 43.125 47.1992 43.1484C47.1914 43.1719 47.1797 43.1914 47.1641 43.207C47.1484 43.2227 47.125 43.2305 47.0938 43.2305C47.0469 43.5039 46.9961 43.7773 46.9414 44.0508C46.8945 44.3164 46.8711 44.5859 46.8711 44.8594C46.8711 45.0234 46.8867 45.1914 46.918 45.3633C46.9492 45.5352 47.0078 45.6992 47.0938 45.8555L47.1406 45.8438C47.2266 45.8438 47.293 45.8633 47.3398 45.9023C47.3945 45.9414 47.4648 45.9805 47.5508 46.0195C47.6133 46.0039 47.6719 45.9844 47.7266 45.9609C47.7812 45.9297 47.8047 45.8789 47.7969 45.8086C47.8984 45.8008 47.9844 45.7773 48.0547 45.7383C48.125 45.6914 48.1875 45.6406 48.2422 45.5859L48.418 45.4219C48.4805 45.3672 48.5547 45.3281 48.6406 45.3047C48.6406 45.2578 48.6523 45.2227 48.6758 45.1992L48.7461 45.1289C48.7695 45.1055 48.7852 45.082 48.793 45.0586C48.8086 45.0273 48.8125 44.9844 48.8047 44.9297C48.8984 44.9219 48.9688 44.8984 49.0156 44.8594C49.0703 44.8203 49.1172 44.7773 49.1562 44.7305C49.2031 44.6758 49.2461 44.6211 49.2852 44.5664C49.3242 44.5117 49.375 44.4648 49.4375 44.4258C49.4922 44.3086 49.5664 44.1523 49.6602 43.957C49.7617 43.7617 49.8594 43.5586 49.9531 43.3477C50.0547 43.1367 50.1406 42.9375 50.2109 42.75C50.2891 42.5547 50.3281 42.4062 50.3281 42.3047C50.3281 42.2656 50.3164 42.2305 50.293 42.1992C50.2773 42.168 50.2734 42.1328 50.2812 42.0938V42.0586C50.3438 41.9805 50.3984 41.8945 50.4453 41.8008C50.5 41.707 50.5547 41.6172 50.6094 41.5312C50.6719 41.4453 50.7383 41.3672 50.8086 41.2969C50.8789 41.2266 50.9688 41.1719 51.0781 41.1328C51.2031 41.1719 51.3281 41.1992 51.4531 41.2148C51.5859 41.2305 51.7109 41.2617 51.8281 41.3086C51.8359 41.5039 51.8555 41.7305 51.8867 41.9883C51.918 42.2461 51.9727 42.4648 52.0508 42.6445C52.0508 42.7461 52.0469 42.8438 52.0391 42.9375C52.0391 43.0312 52.0391 43.125 52.0391 43.2188C52.0391 43.375 52.043 43.5352 52.0508 43.6992C52.0664 43.8633 52.0938 44.0156 52.1328 44.1562C52.0781 44.2734 52.0508 44.3984 52.0508 44.5312C52.0508 44.7109 52.0781 44.8828 52.1328 45.0469C52.1875 45.2031 52.2266 45.3711 52.25 45.5508C52.3516 45.6914 52.4844 45.7617 52.6484 45.7617C52.6875 45.7617 52.7188 45.7578 52.7422 45.75C52.7734 45.7422 52.8047 45.7305 52.8359 45.7148C52.8984 45.7852 52.9531 45.8555 53 45.9258C53.0547 45.9883 53.1172 46.0469 53.1875 46.1016ZM56.1055 46.3945C56.0664 46.457 56.0195 46.5156 55.9648 46.5703C55.9102 46.6172 55.8594 46.668 55.8125 46.7227C55.7578 46.7461 55.6953 46.7578 55.625 46.7578C55.5625 46.7578 55.5 46.7578 55.4375 46.7578C55.3828 46.75 55.3281 46.75 55.2734 46.7578C55.2266 46.7578 55.1875 46.7734 55.1562 46.8047C55.0938 46.7891 55.0469 46.7617 55.0156 46.7227C54.9844 46.6758 54.9297 46.6484 54.8516 46.6406C54.8203 46.6328 54.7891 46.6328 54.7578 46.6406C54.6406 46.5078 54.5312 46.3672 54.4297 46.2188C54.3359 46.0703 54.2461 45.9297 54.1602 45.7969C54.1523 45.5078 54.1289 45.2148 54.0898 44.918C54.082 44.8477 54.0703 44.7773 54.0547 44.707C54.0391 44.6367 54.0273 44.5703 54.0195 44.5078C54.0195 44.4297 54.0234 44.3555 54.0312 44.2852C54.0469 44.207 54.0586 44.1367 54.0664 44.0742C54.0977 43.8477 54.1328 43.625 54.1719 43.4062C54.2109 43.1875 54.2461 42.9648 54.2773 42.7383C54.3086 42.5352 54.3242 42.3242 54.3242 42.1055C54.3242 41.8789 54.2891 41.668 54.2188 41.4727L54.207 41.4141C54.2227 41.3516 54.2383 41.3008 54.2539 41.2617C54.2773 41.2148 54.293 41.1641 54.3008 41.1094C54.3164 41.0234 54.2969 40.9609 54.2422 40.9219C54.2656 40.8594 54.3047 40.8203 54.3594 40.8047C54.4141 40.7812 54.4453 40.7344 54.4531 40.6641C54.4609 40.6328 54.4609 40.6016 54.4531 40.5703C54.5156 40.5469 54.5781 40.5273 54.6406 40.5117C54.7109 40.4883 54.7773 40.4844 54.8398 40.5C54.9414 40.5156 55.0312 40.5508 55.1094 40.6055C55.1875 40.6523 55.2617 40.707 55.332 40.7695C55.457 41.1445 55.5078 41.543 55.4844 41.9648C55.4609 42.3789 55.4219 42.7969 55.3672 43.2188C55.3125 43.6406 55.2773 44.0547 55.2617 44.4609C55.2461 44.8594 55.3086 45.2305 55.4492 45.5742L55.4727 45.5859C55.5117 45.5938 55.543 45.582 55.5664 45.5508C55.5898 45.5117 55.6211 45.4961 55.6602 45.5039C55.6914 45.5195 55.7109 45.5273 55.7188 45.5273C55.75 45.6836 55.8008 45.832 55.8711 45.9727C55.9414 46.1133 56.0195 46.2539 56.1055 46.3945ZM67.3086 40.4648C67.2773 40.5664 67.2266 40.6602 67.1562 40.7461L66.957 40.9922C66.8945 41.0703 66.8398 41.1562 66.793 41.25C66.7539 41.3359 66.7422 41.4375 66.7578 41.5547C66.7422 41.5547 66.7227 41.5547 66.6992 41.5547C66.6758 41.5469 66.6562 41.543 66.6406 41.543C66.5156 41.543 66.418 41.5742 66.3477 41.6367C66.2852 41.6914 66.1992 41.7383 66.0898 41.7773C66.0742 41.7305 66.0547 41.6875 66.0312 41.6484C66.0078 41.6016 65.9727 41.5703 65.9258 41.5547C65.7383 41.5938 65.5508 41.625 65.3633 41.6484C65.1758 41.6641 64.9883 41.6875 64.8008 41.7188C64.7148 41.7344 64.6289 41.7578 64.543 41.7891C64.457 41.8125 64.3672 41.8359 64.2734 41.8594C64.2266 41.875 64.1758 41.8828 64.1211 41.8828C64.0664 41.875 64.0117 41.875 63.957 41.8828C63.7695 41.8906 63.5664 41.9062 63.3477 41.9297C63.1289 41.9453 62.9336 42.0039 62.7617 42.1055C62.6836 42.0898 62.6016 42.0781 62.5156 42.0703C62.4297 42.0625 62.3438 42.0586 62.2578 42.0586C62.0703 42.0586 61.8633 42.0781 61.6367 42.1172C61.418 42.1484 61.2227 42.2148 61.0508 42.3164C61.0117 42.3008 60.9688 42.2891 60.9219 42.2812C60.8828 42.2734 60.8359 42.2695 60.7812 42.2695C60.7656 42.2695 60.7539 42.2734 60.7461 42.2812C60.7383 42.2812 60.7266 42.2812 60.7109 42.2812C60.7031 42.3516 60.7109 42.4219 60.7344 42.4922C60.7656 42.5547 60.8164 42.6055 60.8867 42.6445C60.8555 42.7305 60.8398 42.8242 60.8398 42.9258C60.8398 43.0586 60.8477 43.1914 60.8633 43.3242C60.8867 43.457 60.8984 43.5898 60.8984 43.7227C60.8984 43.8711 60.8789 43.9883 60.8398 44.0742C60.918 44.3086 60.957 44.5586 60.957 44.8242C60.957 44.918 60.9492 45.0117 60.9336 45.1055C60.9258 45.1914 60.9219 45.2852 60.9219 45.3867C60.9219 45.4727 60.9531 45.543 61.0156 45.5977C61.0781 45.6445 61.1094 45.7109 61.1094 45.7969C61.1094 45.8281 61.1016 45.8594 61.0859 45.8906C61.1953 45.8672 61.3008 45.8359 61.4023 45.7969C61.5039 45.75 61.6094 45.7266 61.7188 45.7266C61.7812 45.7266 61.8398 45.7383 61.8945 45.7617C61.957 45.7852 62.0117 45.8164 62.0586 45.8555C62.0508 45.8945 62.043 45.9375 62.0352 45.9844C62.0352 46.0312 62.0352 46.0781 62.0352 46.125C62.0352 46.2109 62.0352 46.293 62.0352 46.3711C62.043 46.4414 62.0508 46.5195 62.0586 46.6055C61.9961 46.7148 61.9219 46.8125 61.8359 46.8984C61.7578 46.9844 61.7031 47.0938 61.6719 47.2266C61.5547 47.2266 61.4492 47.2539 61.3555 47.3086C61.2695 47.3555 61.1875 47.4102 61.1094 47.4727C61.0312 47.5273 60.9531 47.582 60.875 47.6367C60.7969 47.6836 60.7109 47.707 60.6172 47.707C60.5 47.707 60.418 47.6914 60.3711 47.6602C60.3242 47.6211 60.2891 47.582 60.2656 47.543C60.2422 47.5039 60.2188 47.4688 60.1953 47.4375C60.1797 47.4062 60.1406 47.3945 60.0781 47.4023C60.0625 47.3008 60.0312 47.207 59.9844 47.1211C59.9375 47.0273 59.8867 46.9375 59.832 46.8516C59.7852 46.7656 59.7344 46.6797 59.6797 46.5938C59.6328 46.5 59.5977 46.4062 59.5742 46.3125C59.5273 46.1094 59.5078 45.8984 59.5156 45.6797C59.5234 45.4609 59.4883 45.25 59.4102 45.0469C59.4258 44.9375 59.4375 44.8281 59.4453 44.7188C59.4531 44.6016 59.457 44.4883 59.457 44.3789C59.457 44.1602 59.4492 43.9453 59.4336 43.7344C59.4258 43.5156 59.418 43.293 59.4102 43.0664C59.3555 42.9961 59.3203 42.918 59.3047 42.832C59.2969 42.7383 59.2891 42.6484 59.2812 42.5625C59.2578 42.5391 59.2305 42.5156 59.1992 42.4922C59.1758 42.4688 59.1602 42.4375 59.1523 42.3984C59.0898 42.3828 59.043 42.375 59.0117 42.375C58.9023 42.375 58.8086 42.4023 58.7305 42.457C58.6602 42.5039 58.5938 42.5273 58.5312 42.5273C58.4688 42.5273 58.4102 42.5195 58.3555 42.5039C58.3008 42.4883 58.2461 42.4805 58.1914 42.4805C58.1445 42.4805 58.1172 42.4922 58.1094 42.5156C58.1094 42.5312 58.0938 42.5469 58.0625 42.5625C58.0391 42.5781 57.9844 42.5938 57.8984 42.6094C57.8125 42.625 57.7148 42.6406 57.6055 42.6562C57.5039 42.6641 57.4023 42.6719 57.3008 42.6797C57.207 42.6875 57.1445 42.6914 57.1133 42.6914C56.9883 42.6914 56.8945 42.668 56.832 42.6211C56.7617 42.5664 56.6797 42.5078 56.5859 42.4453C56.6016 42.3984 56.6094 42.3672 56.6094 42.3516C56.6094 42.2734 56.5859 42.2109 56.5391 42.1641C56.4922 42.1094 56.4688 42.0625 56.4688 42.0234C56.4688 41.9375 56.5039 41.8711 56.5742 41.8242C56.6367 41.7773 56.6719 41.7031 56.6797 41.6016C56.8594 41.5234 57.043 41.4648 57.2305 41.4258C57.418 41.3867 57.6094 41.3555 57.8047 41.332C58 41.3086 58.1914 41.2812 58.3789 41.25C58.5742 41.2188 58.7656 41.168 58.9531 41.0977C59.0078 41.1055 59.0586 41.1133 59.1055 41.1211C59.1602 41.1211 59.2148 41.1211 59.2695 41.1211C59.5039 41.1211 59.7344 41.0977 59.9609 41.0508C60.1953 40.9961 60.4336 40.9688 60.6758 40.9688C60.7383 40.9688 60.8008 40.9727 60.8633 40.9805C60.9258 40.9883 60.9883 41 61.0508 41.0156C61.3633 40.9688 61.6719 40.918 61.9766 40.8633C62.2891 40.8086 62.6094 40.7617 62.9375 40.7227C63.0938 40.707 63.2461 40.6953 63.3945 40.6875C63.5508 40.6719 63.707 40.6523 63.8633 40.6289C63.918 40.6211 63.957 40.6094 63.9805 40.5938C64.0117 40.5703 64.0273 40.5273 64.0273 40.4648C64.0977 40.4961 64.1758 40.5117 64.2617 40.5117C64.3945 40.5117 64.5234 40.4883 64.6484 40.4414C64.7734 40.3945 64.9023 40.3711 65.0352 40.3711C65.0664 40.3711 65.0938 40.375 65.1172 40.3828C65.1406 40.3828 65.1641 40.3828 65.1875 40.3828C65.2422 40.3828 65.2695 40.3594 65.2695 40.3125C65.2773 40.2578 65.3164 40.2227 65.3867 40.207C65.4414 40.1914 65.5195 40.1797 65.6211 40.1719C65.7227 40.1641 65.8281 40.1562 65.9375 40.1484C66.0547 40.1328 66.1602 40.1172 66.2539 40.1016C66.3555 40.0781 66.4297 40.0469 66.4766 40.0078L66.5586 39.8789C66.6992 39.8867 66.8008 39.9492 66.8633 40.0664C66.9336 40.1758 66.9727 40.2969 66.9805 40.4297C67.0117 40.4609 67.0547 40.4766 67.1094 40.4766C67.1719 40.4688 67.2266 40.4648 67.2734 40.4648H67.3086ZM73.0859 41.2148C73.0391 41.2852 73.0117 41.3633 73.0039 41.4492C72.9961 41.5352 72.9922 41.6133 72.9922 41.6836C72.9922 41.7773 72.9922 41.8711 72.9922 41.9648C73 42.0508 73.0039 42.1367 73.0039 42.2227V42.3984C72.9883 42.4531 72.9648 42.5078 72.9336 42.5625C72.9023 42.6172 72.8789 42.6719 72.8633 42.7266C72.7539 43.0156 72.6992 43.3047 72.6992 43.5938V43.6172C72.6602 43.7109 72.6211 43.7969 72.582 43.875C72.5508 43.9531 72.5195 44.0312 72.4883 44.1094C72.457 44.1797 72.4336 44.2578 72.418 44.3438C72.4023 44.4219 72.3984 44.5156 72.4062 44.625C72.2969 44.8984 72.1523 45.1484 71.9727 45.375C71.793 45.5938 71.6172 45.8203 71.4453 46.0547C71.2812 46.1172 71.1289 46.1992 70.9883 46.3008C70.8555 46.4023 70.7266 46.5156 70.6016 46.6406C70.3594 46.7188 70.1211 46.8086 69.8867 46.9102C69.6523 47.0117 69.4414 47.1484 69.2539 47.3203C69.1055 47.3359 68.957 47.3594 68.8086 47.3906C68.6602 47.4219 68.5156 47.4688 68.375 47.5312H68.2344C68.1641 47.5312 68.1133 47.5156 68.082 47.4844C67.9805 47.5391 67.875 47.5781 67.7656 47.6016C67.6562 47.6172 67.5469 47.625 67.4375 47.625C67.2969 47.625 67.1562 47.6172 67.0156 47.6016C66.8828 47.5781 66.7461 47.5547 66.6055 47.5312C66.5273 47.4219 66.418 47.3398 66.2773 47.2852C66.1367 47.2227 66.0117 47.1641 65.9023 47.1094C65.6758 46.7969 65.5117 46.4961 65.4102 46.207C65.3086 45.9102 65.2031 45.5781 65.0938 45.2109C65.1094 45.1016 65.1367 44.9961 65.1758 44.8945C65.2148 44.7852 65.2305 44.668 65.2227 44.543C65.3633 44.1367 65.5469 43.7695 65.7734 43.4414C66.0078 43.1055 66.2734 42.7852 66.5703 42.4805C66.5703 42.4336 66.5781 42.3945 66.5938 42.3633C66.6172 42.332 66.6211 42.2852 66.6055 42.2227C66.6133 42.2305 66.6289 42.2344 66.6523 42.2344C66.7148 42.2344 66.7539 42.2188 66.7695 42.1875C66.7852 42.1484 66.7891 42.1055 66.7812 42.0586C67.0625 41.8789 67.3164 41.6719 67.543 41.4375C67.7773 41.2031 68.043 41.0078 68.3398 40.8516C68.3633 40.7812 68.4023 40.7227 68.457 40.6758C68.5117 40.6289 68.5547 40.5742 68.5859 40.5117C68.8359 40.4414 69.0625 40.3359 69.2656 40.1953C69.4688 40.0547 69.6836 39.9297 69.9102 39.8203C70.0352 39.75 70.1523 39.7031 70.2617 39.6797C70.3789 39.6484 70.5039 39.6172 70.6367 39.5859C70.6836 39.5703 70.7266 39.5586 70.7656 39.5508C70.8047 39.543 70.8477 39.5391 70.8945 39.5391C71.0352 39.5391 71.1719 39.5664 71.3047 39.6211C71.4375 39.668 71.5742 39.6914 71.7148 39.6914C71.7539 39.6914 71.7852 39.6914 71.8086 39.6914C71.8398 39.6836 71.8711 39.6758 71.9023 39.668C72.0352 39.832 72.2031 39.957 72.4062 40.043C72.4531 40.1602 72.5078 40.2617 72.5703 40.3477C72.6406 40.4336 72.7109 40.5195 72.7812 40.6055C72.8516 40.6836 72.9141 40.7734 72.9688 40.875C73.0312 40.9688 73.0703 41.082 73.0859 41.2148ZM71.9141 41.8242C71.9141 41.7852 71.9102 41.75 71.9023 41.7188C71.8242 41.6953 71.75 41.6641 71.6797 41.625C71.6094 41.5859 71.5312 41.5664 71.4453 41.5664C71.3906 41.5664 71.3359 41.5781 71.2812 41.6016C71.2734 41.5469 71.25 41.5078 71.2109 41.4844C71.1797 41.4609 71.1406 41.4414 71.0938 41.4258C71.0547 41.4023 71.0117 41.3867 70.9648 41.3789C70.9258 41.3633 70.8906 41.3398 70.8594 41.3086C70.8359 41.2461 70.8086 41.1836 70.7773 41.1211C70.7539 41.0508 70.707 41 70.6367 40.9688C70.5664 41.0391 70.4844 41.0977 70.3906 41.1445C70.2969 41.1836 70.1992 41.2227 70.0977 41.2617C70.0039 41.3008 69.9102 41.3477 69.8164 41.4023C69.7305 41.457 69.6562 41.5234 69.5938 41.6016H69.3828C69.3359 41.6875 69.2695 41.7539 69.1836 41.8008C69.0977 41.8398 69.0234 41.8984 68.9609 41.9766C68.8359 42.0391 68.7188 42.1172 68.6094 42.2109C68.5078 42.2969 68.4062 42.3906 68.3047 42.4922C68.2031 42.5859 68.1016 42.6836 68 42.7852C67.9062 42.8867 67.8047 42.9805 67.6953 43.0664C67.5938 43.2852 67.4805 43.4766 67.3555 43.6406C67.2383 43.7969 67.125 43.957 67.0156 44.1211C66.9141 44.2852 66.8242 44.4648 66.7461 44.6602C66.6758 44.8477 66.6406 45.082 66.6406 45.3633V45.4805C66.6406 45.5195 66.6445 45.5586 66.6523 45.5977C66.7539 45.707 66.8359 45.8242 66.8984 45.9492C66.9688 46.0742 67.082 46.1641 67.2383 46.2188C67.3945 46.2812 67.5586 46.3086 67.7305 46.3008C67.9102 46.293 68.082 46.3125 68.2461 46.3594C68.6211 46.2891 68.9805 46.1758 69.3242 46.0195C69.6758 45.8555 70.0078 45.6602 70.3203 45.4336C70.3672 45.3945 70.4219 45.3555 70.4844 45.3164C70.5469 45.2695 70.5977 45.2227 70.6367 45.1758C70.6758 45.1367 70.707 45.0938 70.7305 45.0469C70.7617 45 70.793 44.957 70.8242 44.918C70.8867 44.8164 70.957 44.7148 71.0352 44.6133C71.1133 44.5117 71.1953 44.418 71.2812 44.332C71.3203 44.1602 71.3711 43.9961 71.4336 43.8398C71.4961 43.6758 71.5586 43.5156 71.6211 43.3594C71.6836 43.2031 71.7344 43.043 71.7734 42.8789C71.8203 42.7148 71.8438 42.543 71.8438 42.3633C71.8438 42.3242 71.8398 42.2812 71.832 42.2344C71.832 42.1875 71.8281 42.1445 71.8203 42.1055C71.8828 42.0195 71.9141 41.9258 71.9141 41.8242ZM81.1953 46.1016C81.1641 46.2188 81.1133 46.3164 81.043 46.3945C80.9727 46.4727 80.8906 46.543 80.7969 46.6055C80.7109 46.668 80.6172 46.7266 80.5156 46.7812C80.4141 46.8281 80.3164 46.8828 80.2227 46.9453H80.0703C79.7422 46.9453 79.4883 46.8672 79.3086 46.7109C79.1367 46.5469 79.0039 46.3477 78.9102 46.1133C78.8164 45.8711 78.7461 45.6133 78.6992 45.3398C78.6602 45.0664 78.6094 44.8164 78.5469 44.5898C78.4531 44.668 78.375 44.7617 78.3125 44.8711C78.25 44.9727 78.1836 45.0742 78.1133 45.1758C78.0508 45.2773 77.9766 45.3711 77.8906 45.457C77.8125 45.543 77.707 45.6016 77.5742 45.6328C77.5508 45.6875 77.5234 45.7422 77.4922 45.7969C77.4688 45.8516 77.4531 45.9102 77.4453 45.9727C77.2734 46.0664 77.1172 46.1758 76.9766 46.3008C76.8359 46.4258 76.6953 46.5547 76.5547 46.6875C76.4141 46.8203 76.2695 46.9492 76.1211 47.0742C75.9805 47.1914 75.8203 47.2891 75.6406 47.3672C75.6328 47.3594 75.6172 47.3555 75.5938 47.3555C75.5 47.3555 75.4141 47.3789 75.3359 47.4258C75.2578 47.4648 75.1719 47.4844 75.0781 47.4844C75.0156 47.4844 74.957 47.4727 74.9023 47.4492C74.8555 47.4258 74.8047 47.3984 74.75 47.3672C74.7031 47.3359 74.6523 47.3125 74.5977 47.2969C74.543 47.2812 74.4844 47.2773 74.4219 47.2852C74.3438 47.1445 74.2383 47.0156 74.1055 46.8984C73.9805 46.7734 73.9023 46.6328 73.8711 46.4766C73.8555 46.4062 73.8438 46.3359 73.8359 46.2656C73.8359 46.1875 73.8281 46.1094 73.8125 46.0312C73.7891 45.9141 73.7578 45.7969 73.7188 45.6797C73.6797 45.5547 73.6484 45.4297 73.625 45.3047C73.6641 45.0938 73.7031 44.8633 73.7422 44.6133C73.7734 44.3555 73.8125 44.1016 73.8594 43.8516C73.9141 43.5938 73.9844 43.3516 74.0703 43.125C74.1641 42.8906 74.2812 42.6914 74.4219 42.5273L74.4102 42.4453C74.4102 42.3203 74.4336 42.2031 74.4805 42.0938C74.5273 41.9844 74.5781 41.8789 74.6328 41.7773C74.6875 41.6758 74.7344 41.5742 74.7734 41.4727C74.8125 41.3711 74.8203 41.2578 74.7969 41.1328C74.8906 41.0859 74.9883 41.0469 75.0898 41.0156C75.1914 40.9844 75.2969 40.9688 75.4062 40.9688C75.5078 40.9688 75.6016 40.9844 75.6875 41.0156C75.6719 41.0781 75.6992 41.1172 75.7695 41.1328V41.168C75.7695 41.332 75.75 41.4922 75.7109 41.6484C75.6719 41.8047 75.625 41.9609 75.5703 42.1172C75.5156 42.2656 75.4609 42.418 75.4062 42.5742C75.3594 42.7227 75.3242 42.875 75.3008 43.0312C75.2695 43.0391 75.2461 43.0547 75.2305 43.0781C75.2227 43.1016 75.2148 43.125 75.207 43.1484C75.1992 43.1719 75.1875 43.1914 75.1719 43.207C75.1562 43.2227 75.1328 43.2305 75.1016 43.2305C75.0547 43.5039 75.0039 43.7773 74.9492 44.0508C74.9023 44.3164 74.8789 44.5859 74.8789 44.8594C74.8789 45.0234 74.8945 45.1914 74.9258 45.3633C74.957 45.5352 75.0156 45.6992 75.1016 45.8555L75.1484 45.8438C75.2344 45.8438 75.3008 45.8633 75.3477 45.9023C75.4023 45.9414 75.4727 45.9805 75.5586 46.0195C75.6211 46.0039 75.6797 45.9844 75.7344 45.9609C75.7891 45.9297 75.8125 45.8789 75.8047 45.8086C75.9062 45.8008 75.9922 45.7773 76.0625 45.7383C76.1328 45.6914 76.1953 45.6406 76.25 45.5859L76.4258 45.4219C76.4883 45.3672 76.5625 45.3281 76.6484 45.3047C76.6484 45.2578 76.6602 45.2227 76.6836 45.1992L76.7539 45.1289C76.7773 45.1055 76.793 45.082 76.8008 45.0586C76.8164 45.0273 76.8203 44.9844 76.8125 44.9297C76.9062 44.9219 76.9766 44.8984 77.0234 44.8594C77.0781 44.8203 77.125 44.7773 77.1641 44.7305C77.2109 44.6758 77.2539 44.6211 77.293 44.5664C77.332 44.5117 77.3828 44.4648 77.4453 44.4258C77.5 44.3086 77.5742 44.1523 77.668 43.957C77.7695 43.7617 77.8672 43.5586 77.9609 43.3477C78.0625 43.1367 78.1484 42.9375 78.2188 42.75C78.2969 42.5547 78.3359 42.4062 78.3359 42.3047C78.3359 42.2656 78.3242 42.2305 78.3008 42.1992C78.2852 42.168 78.2812 42.1328 78.2891 42.0938V42.0586C78.3516 41.9805 78.4062 41.8945 78.4531 41.8008C78.5078 41.707 78.5625 41.6172 78.6172 41.5312C78.6797 41.4453 78.7461 41.3672 78.8164 41.2969C78.8867 41.2266 78.9766 41.1719 79.0859 41.1328C79.2109 41.1719 79.3359 41.1992 79.4609 41.2148C79.5938 41.2305 79.7188 41.2617 79.8359 41.3086C79.8438 41.5039 79.8633 41.7305 79.8945 41.9883C79.9258 42.2461 79.9805 42.4648 80.0586 42.6445C80.0586 42.7461 80.0547 42.8438 80.0469 42.9375C80.0469 43.0312 80.0469 43.125 80.0469 43.2188C80.0469 43.375 80.0508 43.5352 80.0586 43.6992C80.0742 43.8633 80.1016 44.0156 80.1406 44.1562C80.0859 44.2734 80.0586 44.3984 80.0586 44.5312C80.0586 44.7109 80.0859 44.8828 80.1406 45.0469C80.1953 45.2031 80.2344 45.3711 80.2578 45.5508C80.3594 45.6914 80.4922 45.7617 80.6562 45.7617C80.6953 45.7617 80.7266 45.7578 80.75 45.75C80.7812 45.7422 80.8125 45.7305 80.8438 45.7148C80.9062 45.7852 80.9609 45.8555 81.0078 45.9258C81.0625 45.9883 81.125 46.0469 81.1953 46.1016ZM87.7812 46.5234C87.7812 46.6562 87.7461 46.7734 87.6758 46.875C87.6133 46.9688 87.5898 47.0859 87.6055 47.2266C87.4961 47.2891 87.4062 47.3711 87.3359 47.4727C87.2656 47.5742 87.1992 47.6797 87.1367 47.7891C86.6211 48.125 86.0664 48.3945 85.4727 48.5977C84.8867 48.8086 84.2812 48.9141 83.6562 48.9141C83.6172 48.9141 83.582 48.8945 83.5508 48.8555C83.5195 48.8242 83.4883 48.7891 83.457 48.75C83.4258 48.7109 83.3906 48.6719 83.3516 48.6328C83.3203 48.6016 83.2812 48.5859 83.2344 48.5859C83.1797 48.5859 83.1367 48.5977 83.1055 48.6211C83.1055 48.6055 83.1055 48.5898 83.1055 48.5742C83.1133 48.5664 83.1172 48.5547 83.1172 48.5391C83.1172 48.4453 83.1055 48.3477 83.082 48.2461C83.0586 48.1523 83.0469 48.0586 83.0469 47.9648C83.0469 47.8555 83.0664 47.7656 83.1055 47.6953H83.2461C83.3242 47.6953 83.3984 47.6914 83.4688 47.6836C83.5469 47.668 83.6289 47.6602 83.7148 47.6602C83.8008 47.6602 83.8789 47.6836 83.9492 47.7305C84.3789 47.7148 84.7852 47.6367 85.168 47.4961C85.5586 47.3477 85.9531 47.2031 86.3516 47.0625C86.4141 46.9766 86.4492 46.8828 86.457 46.7812C86.4727 46.6719 86.5039 46.5703 86.5508 46.4766C86.3477 46.3047 86.1406 46.1719 85.9297 46.0781C85.7266 45.9766 85.4883 45.9414 85.2148 45.9727C85.0508 45.8711 84.875 45.8125 84.6875 45.7969C84.5078 45.7812 84.3242 45.7578 84.1367 45.7266C84.0898 45.7188 84.0391 45.7109 83.9844 45.7031C83.9375 45.6875 83.8867 45.6797 83.832 45.6797C83.793 45.6797 83.7539 45.6914 83.7148 45.7148C83.6836 45.7305 83.6758 45.7578 83.6914 45.7969C83.6523 45.7344 83.5977 45.6992 83.5273 45.6914C83.4648 45.6758 83.4102 45.6445 83.3633 45.5977C83.1133 45.582 82.8945 45.5391 82.707 45.4688C82.5195 45.3906 82.3125 45.3047 82.0859 45.2109C82.0234 45.1875 81.9609 45.1719 81.8984 45.1641C81.8438 45.1484 81.7891 45.125 81.7344 45.0938C81.5938 45.0234 81.4805 44.9297 81.3945 44.8125C81.3086 44.6953 81.2422 44.5664 81.1953 44.4258C81.1406 44.2773 81.1016 44.125 81.0781 43.9688C81.0547 43.8125 81.0312 43.668 81.0078 43.5352C81.0781 43.4102 81.1445 43.2812 81.207 43.1484C81.2617 43.0156 81.3086 42.875 81.3477 42.7266C81.3945 42.7031 81.4414 42.6836 81.4883 42.668C81.5352 42.6523 81.5859 42.6328 81.6406 42.6094C81.6328 42.5938 81.6289 42.5742 81.6289 42.5508C81.6289 42.5117 81.6406 42.4727 81.6641 42.4336C81.6953 42.3945 81.7031 42.3555 81.6875 42.3164C81.8594 42.1602 82.0234 42 82.1797 41.8359C82.3438 41.6641 82.4844 41.4766 82.6016 41.2734C82.7188 41.2344 82.8125 41.1758 82.8828 41.0977C82.9531 41.0195 83.0234 40.9414 83.0938 40.8633C83.1641 40.7773 83.2422 40.7031 83.3281 40.6406C83.4141 40.5703 83.5234 40.5273 83.6562 40.5117C83.6875 40.457 83.7305 40.4141 83.7852 40.3828C83.8398 40.3438 83.8945 40.3086 83.9492 40.2773C84.0039 40.2461 84.0547 40.2109 84.1016 40.1719C84.1484 40.1328 84.1836 40.0781 84.207 40.0078C84.332 40.0078 84.4453 39.9844 84.5469 39.9375C84.6562 39.8906 84.7617 39.8398 84.8633 39.7852C84.9648 39.7305 85.0664 39.6797 85.168 39.6328C85.2773 39.5859 85.3945 39.5625 85.5195 39.5625C85.5508 39.5625 85.582 39.5664 85.6133 39.5742C85.6445 39.5742 85.6797 39.5781 85.7188 39.5859C85.7734 39.6406 85.8086 39.707 85.8242 39.7852C85.8477 39.8555 85.8633 39.9336 85.8711 40.0195C85.8789 40.1055 85.8828 40.1914 85.8828 40.2773C85.8906 40.3633 85.9062 40.4414 85.9297 40.5117C85.8594 40.6445 85.7812 40.7773 85.6953 40.9102C85.6172 41.043 85.5117 41.1445 85.3789 41.2148H85.3555C85.3008 41.2227 85.25 41.2109 85.2031 41.1797C85.1562 41.1484 85.1016 41.1328 85.0391 41.1328C85 41.1328 84.9688 41.1445 84.9453 41.168L84.8867 41.2266C84.8711 41.2422 84.8477 41.2578 84.8164 41.2734C84.793 41.2891 84.7578 41.2891 84.7109 41.2734C84.6016 41.3125 84.5586 41.3789 84.582 41.4727C84.4336 41.4883 84.3086 41.5352 84.207 41.6133C84.1055 41.6836 84.0117 41.7656 83.9258 41.8594C83.8398 41.9453 83.7539 42.0273 83.668 42.1055C83.582 42.1758 83.4805 42.2148 83.3633 42.2227C83.2305 42.457 83.0664 42.6641 82.8711 42.8438C82.6836 43.0234 82.5273 43.2266 82.4023 43.4531C82.4258 43.5156 82.4414 43.582 82.4492 43.6523C82.457 43.7227 82.4688 43.7969 82.4844 43.875C82.5547 43.9688 82.6367 44.0508 82.7305 44.1211C82.832 44.1914 82.9297 44.2617 83.0234 44.332H83.0586C83.2148 44.332 83.3594 44.3633 83.4922 44.4258C83.625 44.4805 83.7656 44.5078 83.9141 44.5078C83.9922 44.5078 84.0586 44.4922 84.1133 44.4609C84.3164 44.5078 84.5156 44.5469 84.7109 44.5781C84.9141 44.6094 85.1172 44.6328 85.3203 44.6484C85.4219 44.6641 85.5234 44.6719 85.625 44.6719C85.7344 44.6719 85.8359 44.6836 85.9297 44.707C86.0156 44.7305 86.1016 44.7617 86.1875 44.8008C86.2734 44.832 86.3594 44.8672 86.4453 44.9062C86.625 44.9844 86.793 45.0703 86.9492 45.1641C87.1133 45.2578 87.2578 45.3711 87.3828 45.5039C87.5078 45.6289 87.6055 45.7773 87.6758 45.9492C87.7461 46.1133 87.7812 46.3047 87.7812 46.5234Z" fill="white"/>
<defs>
<linearGradient id="paint0_linear_277_5" x1="50" y1="0" x2="50" y2="82" gradientUnits="userSpaceOnUse">
<stop stop-color="#F02871"/>
<stop offset="1" stop-color="#14103B"/>
</linearGradient>
</defs>
</svg>
